<svg xmlns="http://www.w3.org/2000/svg" width="375" viewBox="0 0 375 375" height="375" version="1.0"><path fill="#FF1616" d="M 187.574219 18.449219 C 94.167969 18.449219 18.449219 94.167969 18.449219 187.574219 C 18.449219 280.980469 94.167969 356.699219 187.574219 356.699219 C 280.980469 356.699219 356.699219 280.980469 356.699219 187.574219 C 356.699219 94.167969 280.980469 18.449219 187.574219 18.449219"/><g fill="#FFF"><g><g><path d="M 136.5625 -95.578125 C 136.5625 -61.109375 129.128906 -36.160156 114.265625 -20.734375 C 99.398438 -5.304688 75.613281 2.40625 42.90625 2.40625 C 32.132812 2.40625 23.941406 2.003906 18.328125 1.203125 L 18.328125 -36.515625 C 25.234375 -35.234375 32.140625 -34.59375 39.046875 -34.59375 C 56.085938 -34.59375 69.226562 -38.109375 78.46875 -45.140625 C 87.707031 -52.171875 92.726562 -63.28125 93.53125 -78.46875 L 92.078125 -78.46875 C 88.953125 -72.675781 85.859375 -68.492188 82.796875 -65.921875 C 79.742188 -63.359375 76.007812 -61.390625 71.59375 -60.015625 C 67.175781 -58.648438 61.671875 -57.96875 55.078125 -57.96875 C 39.816406 -57.96875 27.882812 -63.070312 19.28125 -73.28125 C 10.6875 -83.488281 6.390625 -97.550781 6.390625 -115.46875 C 6.390625 -134.988281 11.953125 -150.289062 23.078125 -161.375 C 34.210938 -172.46875 49.460938 -178.015625 68.828125 -178.015625 C 90.359375 -178.015625 107.03125 -170.863281 118.84375 -156.5625 C 130.65625 -142.257812 136.5625 -121.929688 136.5625 -95.578125 Z M 70.140625 -139.9375 C 64.921875 -139.9375 60.679688 -138.046875 57.421875 -134.265625 C 54.171875 -130.492188 52.546875 -124.425781 52.546875 -116.0625 C 52.546875 -109.476562 53.953125 -104.238281 56.765625 -100.34375 C 59.578125 -96.445312 63.878906 -94.5 69.671875 -94.5 C 74.890625 -94.5 79.425781 -96.382812 83.28125 -100.15625 C 87.144531 -103.9375 89.078125 -108.476562 89.078125 -113.78125 C 89.078125 -120.925781 87.285156 -127.070312 83.703125 -132.21875 C 80.128906 -137.363281 75.609375 -139.9375 70.140625 -139.9375 Z M 70.140625 -139.9375" transform="translate(39.79 283.821)"/></g></g></g><g fill="#FFF"><g><g><path d="M 52.0625 0 L 0 -136.5625 L 49.171875 -136.5625 L 72.3125 -55.8125 C 72.394531 -55.40625 72.554688 -54.71875 72.796875 -53.75 C 73.035156 -52.789062 73.273438 -51.644531 73.515625 -50.3125 C 73.765625 -48.988281 73.988281 -47.582031 74.1875 -46.09375 C 74.382812 -44.613281 74.484375 -43.226562 74.484375 -41.9375 L 75.328125 -41.9375 C 75.328125 -46.125 76.050781 -50.664062 77.5 -55.5625 L 101.734375 -136.5625 L 150.78125 -136.5625 L 98.71875 0 Z M 52.0625 0" transform="translate(184.413 283.821)"/></g></g></g></svg>