<svg xmlns="http://www.w3.org/2000/svg" width="375" viewBox="0 0 375 375" height="375" version="1.0"><defs><clipPath id="a"><path d="M 34.683594 45.191406 L 356.433594 45.191406 L 356.433594 303.191406 L 34.683594 303.191406 Z M 34.683594 45.191406"/></clipPath><clipPath id="b"><path d="M 34.683594 50.582031 L 356.433594 50.582031 L 356.433594 308.582031 L 34.683594 308.582031 Z M 34.683594 50.582031"/></clipPath><clipPath id="c"><path d="M 27.378906 55.761719 L 356.628906 55.761719 L 356.628906 319.011719 L 27.378906 319.011719 Z M 27.378906 55.761719"/></clipPath><clipPath id="d"><path d="M 91.542969 143.210938 L 128.292969 143.210938 L 128.292969 179.960938 L 91.542969 179.960938 Z M 91.542969 143.210938"/></clipPath><clipPath id="e"><path d="M 209 187.5 L 243 187.5 L 243 245 L 209 245 Z M 209 187.5"/></clipPath><clipPath id="f"><path d="M 202.570312 224 L 249.820312 224 L 249.820312 253 L 202.570312 253 Z M 202.570312 224"/></clipPath><clipPath id="g"><path d="M 205 275 L 247 275 L 247 278.25 L 205 278.25 Z M 205 275"/></clipPath></defs><g clip-path="url(#a)"><path fill="#DF6113" d="M 163.382812 45.191406 L 66.859375 45.191406 C 49.082031 45.191406 34.84375 59.625 34.84375 77.441406 L 34.683594 270.941406 C 34.683594 288.757812 49.082031 303.191406 66.859375 303.191406 L 324.257812 303.191406 C 342.035156 303.191406 356.433594 288.757812 356.433594 270.941406 L 356.433594 109.691406 C 356.433594 91.875 342.035156 77.441406 324.257812 77.441406 L 195.558594 77.441406 Z M 163.382812 45.191406"/></g><g clip-path="url(#b)"><path fill="#FFF" d="M 163.382812 50.582031 L 66.859375 50.582031 C 49.082031 50.582031 34.84375 65.015625 34.84375 82.832031 L 34.683594 276.332031 C 34.683594 294.152344 49.082031 308.582031 66.859375 308.582031 L 324.257812 308.582031 C 342.035156 308.582031 356.433594 294.152344 356.433594 276.332031 L 356.433594 115.082031 C 356.433594 97.265625 342.035156 82.832031 324.257812 82.832031 L 195.558594 82.832031 Z M 163.382812 50.582031"/></g><g clip-path="url(#c)"><path fill="#DF6113" d="M 159.078125 55.761719 L 60.304688 55.761719 C 42.113281 55.761719 27.542969 70.488281 27.542969 88.667969 L 27.378906 286.105469 C 27.378906 304.285156 42.113281 319.011719 60.304688 319.011719 L 323.703125 319.011719 C 341.890625 319.011719 356.625 304.285156 356.625 286.105469 L 356.625 121.574219 C 356.625 103.394531 341.890625 88.667969 323.703125 88.667969 L 192.003906 88.667969 Z M 159.078125 55.761719"/></g><g fill="#FFF"><g><g><path d="M 26.074219 0 C 28.035156 0 29.722656 -1.335938 30.257812 -3.113281 L 43.25 -43.339844 C 43.964844 -45.296875 42.539062 -47.078125 40.582031 -47.078125 L 35.507812 -47.078125 C 32.839844 -47.078125 31.949219 -45.832031 31.414062 -43.875 L 23.316406 -15.484375 L 15.21875 -43.875 C 14.683594 -45.832031 13.792969 -47.078125 11.125 -47.078125 L 6.050781 -47.078125 C 4.09375 -47.078125 2.667969 -45.296875 3.382812 -43.339844 L 16.375 -3.113281 C 16.996094 -1.335938 18.6875 0 20.648438 0 Z M 26.074219 0" transform="translate(153.23 275.866)"/></g></g></g><g fill="#FFF"><g><g><path d="M 25.453125 0.890625 C 32.128906 0.890625 36.753906 -1.425781 39.871094 -5.160156 C 40.847656 -6.496094 40.492188 -8.632812 39.246094 -9.613281 L 36.488281 -11.660156 C 34.351562 -13.171875 33.550781 -12.726562 31.058594 -11.390625 C 29.101562 -9.96875 27.234375 -9.613281 25.453125 -9.613281 C 21.179688 -9.613281 18.6875 -12.015625 18.6875 -17.621094 L 18.6875 -29.902344 C 18.6875 -35.507812 21.179688 -37.910156 25.453125 -37.910156 C 27.234375 -37.910156 29.101562 -37.554688 31.058594 -36.132812 C 33.550781 -34.796875 34.351562 -34.351562 36.488281 -35.863281 L 39.246094 -37.910156 C 40.492188 -38.890625 40.847656 -41.027344 39.871094 -42.363281 C 36.753906 -46.097656 32.128906 -48.414062 25.453125 -48.414062 C 13.261719 -48.414062 7.121094 -41.117188 7.121094 -28.476562 L 7.121094 -19.046875 C 7.121094 -6.40625 13.261719 0.890625 25.453125 0.890625 Z M 25.453125 0.890625" transform="translate(249.687 275.866)"/></g></g></g><g fill="#FFF"><g><g><path d="M 5.605469 -19.046875 C 5.605469 -6.050781 11.925781 0.890625 24.652344 0.890625 C 31.328125 0.890625 36.222656 -1.425781 39.246094 -5.160156 C 40.226562 -6.320312 40.046875 -8.722656 38.710938 -9.613281 L 35.953125 -11.660156 C 33.816406 -13.171875 33.015625 -12.816406 30.523438 -11.390625 C 28.566406 -10.054688 26.429688 -9.613281 24.652344 -9.613281 C 19.933594 -9.613281 17.265625 -12.015625 17.265625 -17.621094 L 17.265625 -19.488281 L 38.089844 -19.488281 C 39.871094 -19.488281 41.382812 -20.914062 41.382812 -22.78125 L 41.382812 -28.921875 C 41.382812 -41.828125 35.332031 -48.414062 23.496094 -48.414062 C 11.660156 -48.414062 5.605469 -41.828125 5.605469 -28.921875 Z M 17.265625 -30.347656 C 17.265625 -35.597656 19.046875 -38 23.496094 -38 C 27.945312 -38 29.722656 -35.777344 29.722656 -30.347656 L 29.722656 -29.011719 L 17.265625 -28.835938 Z M 17.265625 -30.347656" transform="translate(296.32 275.866)"/></g></g></g><g fill="#FFF"><g><g><path d="M 22.78125 0 L 73.5625 -59.140625 C 70.632812 -57.472656 66.523438 -56.640625 61.234375 -56.640625 C 55.109375 -56.640625 48.910156 -57.925781 42.640625 -60.5 C 36.367188 -63.082031 30.476562 -66.773438 24.96875 -71.578125 C 19.46875 -76.390625 14.972656 -82.765625 11.484375 -90.703125 C 8.003906 -98.648438 6.265625 -107.429688 6.265625 -117.046875 C 6.265625 -126.796875 8.109375 -135.535156 11.796875 -143.265625 C 15.492188 -151.003906 20.441406 -157.132812 26.640625 -161.65625 C 32.847656 -166.1875 39.644531 -169.632812 47.03125 -172 C 54.414062 -174.375 62.144531 -175.5625 70.21875 -175.5625 C 89.59375 -175.5625 105.894531 -169.914062 119.125 -158.625 C 132.363281 -147.34375 138.984375 -133.484375 138.984375 -117.046875 C 138.984375 -103.109375 137.03125 -91.644531 133.125 -82.65625 C 129.226562 -73.664062 122.125 -62.207031 111.8125 -48.28125 L 71.265625 0 Z M 98.234375 -117.046875 C 98.234375 -124.566406 95.789062 -130.800781 90.90625 -135.75 C 86.03125 -140.695312 79.757812 -143.171875 72.09375 -143.171875 C 64.4375 -143.171875 58.097656 -140.695312 53.078125 -135.75 C 48.066406 -130.800781 45.5625 -124.566406 45.5625 -117.046875 C 45.5625 -109.378906 48.101562 -103 53.1875 -97.90625 C 58.269531 -92.820312 64.578125 -90.28125 72.109375 -90.28125 C 79.347656 -90.28125 85.507812 -92.820312 90.59375 -97.90625 C 95.6875 -103 98.234375 -109.378906 98.234375 -117.046875 Z M 98.234375 -117.046875" transform="translate(37.5 278.02)"/></g></g></g><g clip-path="url(#d)"><path fill="#FFF" d="M 109.917969 143.210938 C 99.796875 143.210938 91.542969 151.566406 91.542969 161.8125 C 91.542969 171.265625 98.578125 179.097656 107.621094 180.25 L 107.621094 185.058594 L 98.433594 185.058594 L 98.433594 189.707031 L 121.402344 189.707031 L 121.402344 185.058594 L 112.214844 185.058594 L 112.214844 180.25 C 121.257812 179.097656 128.292969 171.265625 128.292969 161.8125 C 128.292969 151.566406 120.039062 143.210938 109.917969 143.210938 Z M 109.917969 152.511719 C 114.992188 152.511719 119.105469 156.675781 119.105469 161.8125 C 119.105469 166.945312 114.992188 171.109375 109.917969 171.109375 C 104.84375 171.109375 100.730469 166.945312 100.730469 161.8125 C 100.730469 156.675781 104.84375 152.511719 109.917969 152.511719 Z M 112.214844 157.160156 C 111.910156 157.160156 111.617188 157.21875 111.335938 157.339844 C 111.054688 157.457031 110.804688 157.625 110.589844 157.84375 C 110.375 158.058594 110.207031 158.3125 110.09375 158.597656 C 109.976562 158.882812 109.917969 159.175781 109.917969 159.484375 C 109.917969 159.792969 109.976562 160.089844 110.09375 160.375 C 110.207031 160.660156 110.375 160.910156 110.589844 161.128906 C 110.804688 161.347656 111.054688 161.515625 111.335938 161.632812 C 111.617188 161.75 111.910156 161.8125 112.214844 161.8125 C 112.519531 161.8125 112.8125 161.75 113.09375 161.632812 C 113.375 161.515625 113.621094 161.347656 113.839844 161.128906 C 114.054688 160.910156 114.21875 160.660156 114.335938 160.375 C 114.453125 160.089844 114.511719 159.792969 114.511719 159.484375 C 114.511719 159.175781 114.453125 158.882812 114.335938 158.597656 C 114.21875 158.3125 114.054688 158.058594 113.839844 157.84375 C 113.621094 157.625 113.375 157.457031 113.09375 157.339844 C 112.8125 157.21875 112.519531 157.160156 112.214844 157.160156 Z M 112.214844 157.160156"/></g><g clip-path="url(#e)"><path fill="#FFF" d="M 233.433594 236.628906 C 231.996094 236.628906 230.835938 235.464844 230.835938 234.03125 C 230.835938 232.597656 231.996094 231.4375 233.433594 231.4375 L 242.816406 231.4375 L 242.816406 227.730469 L 233.433594 227.730469 C 231.996094 227.730469 230.835938 226.566406 230.835938 225.136719 C 230.835938 223.703125 231.996094 222.539062 233.433594 222.539062 L 242.816406 222.539062 L 242.816406 218.832031 L 233.433594 218.832031 C 231.996094 218.832031 230.835938 217.671875 230.835938 216.238281 C 230.835938 214.804688 231.996094 213.644531 233.433594 213.644531 L 242.816406 213.644531 L 242.816406 209.9375 L 233.433594 209.9375 C 231.996094 209.9375 230.835938 208.773438 230.835938 207.34375 C 230.835938 205.90625 231.996094 204.746094 233.433594 204.746094 L 242.816406 204.746094 L 242.816406 201.039062 L 233.433594 201.039062 C 231.996094 201.039062 230.835938 199.875 230.835938 198.445312 C 230.835938 197.011719 231.996094 195.851562 233.433594 195.851562 L 242.464844 195.851562 C 241.253906 191.050781 236.917969 187.496094 231.734375 187.496094 L 220.65625 187.496094 C 215.476562 187.496094 211.140625 191.050781 209.925781 195.851562 L 218.957031 195.851562 C 220.394531 195.851562 221.554688 197.011719 221.554688 198.445312 C 221.554688 199.875 220.394531 201.039062 218.957031 201.039062 L 209.574219 201.039062 L 209.574219 204.746094 L 218.957031 204.746094 C 220.394531 204.746094 221.554688 205.90625 221.554688 207.34375 C 221.554688 208.773438 220.394531 209.9375 218.957031 209.9375 L 209.574219 209.9375 L 209.574219 213.644531 L 218.957031 213.644531 C 220.394531 213.644531 221.554688 214.804688 221.554688 216.238281 C 221.554688 217.671875 220.394531 218.832031 218.957031 218.832031 L 209.574219 218.832031 L 209.574219 222.539062 L 218.957031 222.539062 C 220.394531 222.539062 221.554688 223.703125 221.554688 225.136719 C 221.554688 226.566406 220.394531 227.730469 218.957031 227.730469 L 209.574219 227.730469 L 209.574219 231.4375 L 218.957031 231.4375 C 220.394531 231.4375 221.554688 232.597656 221.554688 234.03125 C 221.554688 235.464844 220.394531 236.628906 218.957031 236.628906 L 209.925781 236.628906 C 211.140625 241.425781 215.476562 244.980469 220.65625 244.980469 L 231.734375 244.980469 C 236.917969 244.980469 241.253906 241.425781 242.464844 236.628906 L 233.433594 236.628906"/></g><g clip-path="url(#f)"><path fill="#FFF" d="M 247.578125 224.566406 C 246.363281 224.566406 245.375 225.550781 245.375 226.765625 L 245.378906 226.777344 L 245.378906 238.132812 C 245.484375 240.859375 239.90625 247.203125 236.007812 247.492188 L 216.386719 247.492188 C 212.875 247.683594 207.292969 241.535156 207.015625 238.132812 L 207.015625 226.765625 C 207.015625 225.550781 206.03125 224.566406 204.8125 224.566406 C 203.597656 224.566406 202.613281 225.550781 202.613281 226.765625 L 202.613281 239.722656 C 202.613281 243.9375 210.757812 252.015625 214.917969 252.015625 L 237.476562 252.015625 C 241.539062 252.015625 249.78125 244.320312 249.78125 239.722656 L 249.78125 226.765625 C 249.78125 225.550781 248.792969 224.566406 247.578125 224.566406"/></g><path fill="#FFF" d="M 228.835938 271.613281 C 228.835938 273.070312 227.65625 274.253906 226.195312 274.253906 C 224.734375 274.253906 223.550781 273.070312 223.550781 271.613281 L 223.550781 250.996094 C 223.550781 249.539062 224.734375 248.355469 226.195312 248.355469 C 227.65625 248.355469 228.835938 249.539062 228.835938 250.996094 L 228.835938 271.613281"/><path fill="#FFF" d="M 246.90625 275.820312 L 246.90625 275.796875 C 246.90625 275.820312 237.632812 267.1875 226.195312 267.1875 C 214.757812 267.1875 205.484375 275.820312 205.484375 275.796875 L 205.484375 275.820312 L 246.90625 275.820312"/><g clip-path="url(#g)"><path fill="#FFF" d="M 246.90625 275.820312 C 246.90625 277.164062 237.632812 278.253906 226.195312 278.253906 C 214.757812 278.253906 205.484375 277.164062 205.484375 275.820312 C 205.484375 275.820312 214.519531 275.597656 225.957031 275.597656 C 237.394531 275.597656 246.90625 275.820312 246.90625 275.820312"/></g></svg>